STARTFONT 2.1
FONT HAN-GB2312
SIZE 14 72 72
FONTBOUNDINGBOX 2 14 0 0
STARTPROPERTIES 1
BITCOUNT 8
ENDPROPERTIES
CHARS 83
STARTCHAR  00E0
ENCODING  224
SWIDTH  1000 0
DWIDTH  2 0
BBX  2 12 0 0
BITMAP
8020
E0F0
E0F0
E0E0
E0E0
E0E0
E0E0
E0E0
E0E0
E0E0
E0E0
F0F0
ENDCHAR
STARTCHAR  00E1
ENCODING  225
SWIDTH  1000 0
DWIDTH  2 0
BBX  2 12 0 0
BITMAP
2080
E0F0
E0F0
E0E0
E0E0
E0E0
E0E0
E0E0
E0E0
E0E0
E0E0
F0F0
ENDCHAR
STARTCHAR  00E8
ENCODING  232
SWIDTH  1000 0
DWIDTH  2 0
BBX  2 12 0 0
BITMAP
8020
F0F0
E0E0
F0E0
E080
E0E0
E0E0
E0E0
E0E0
E0E0
E0E0
F0F0
ENDCHAR
STARTCHAR  00E9
ENCODING  233
SWIDTH  1000 0
DWIDTH  2 0
BBX  2 12 0 0
BITMAP
2080
F0F0
E0E0
F0E0
E080
E0E0
E0E0
E0E0
E0E0
E0E0
E0E0
F0F0
ENDCHAR
STARTCHAR  00EA
ENCODING  234
SWIDTH  1000 0
DWIDTH  2 0
BBX  2 13 0 0
BITMAP
A0A0
2020
F0F0
E0E0
F0E0
E080
E0E0
E0E0
E0E0
E0E0
E0E0
E0E0
F0F0
ENDCHAR
STARTCHAR  00EC
ENCODING  236
SWIDTH  1000 0
DWIDTH  2 0
BBX  2 12 0 0
BITMAP
20A0
00E0
00E0
00E0
00E0
00E0
00E0
00E0
00E0
00E0
00E0
00E0
ENDCHAR
STARTCHAR  00ED
ENCODING  237
SWIDTH  1000 0
DWIDTH  2 0
BBX  2 12 0 0
BITMAP
A020
E000
E000
E000
E000
E000
E000
E000
E000
E000
E000
E000
ENDCHAR
STARTCHAR  00F2
ENCODING  242
SWIDTH  1000 0
DWIDTH  2 0
BBX  2 12 0 0
BITMAP
8020
F0F0
E0E0
E0E0
E0E0
E0E0
E0E0
E0E0
E0E0
E0E0
E0E0
F0F0
ENDCHAR
STARTCHAR  00F3
ENCODING  243
SWIDTH  1000 0
DWIDTH  2 0
BBX  2 12 0 0
BITMAP
2080
F0F0
E0E0
E0E0
E0E0
E0E0
E0E0
E0E0
E0E0
E0E0
E0E0
F0F0
ENDCHAR
STARTCHAR  00F9
ENCODING  249
SWIDTH  1000 0
DWIDTH  2 0
BBX  2 12 0 0
BITMAP
8020
E0E0
E0E0
E0E0
E0E0
E0E0
E0E0
E0E0
E0E0
E0E0
E0E0
F0F0
ENDCHAR
STARTCHAR  00FA
ENCODING  250
SWIDTH  1000 0
DWIDTH  2 0
BBX  2 12 0 0
BITMAP
2080
E0E0
E0E0
E0E0
E0E0
E0E0
E0E0
E0E0
E0E0
E0E0
E0E0
F0F0
ENDCHAR
STARTCHAR  00FC
ENCODING  252
SWIDTH  1000 0
DWIDTH  2 0
BBX  2 12 0 0
BITMAP
E0E0
E0E0
E0E0
E0E0
E0E0
E0E0
E0E0
E0E0
E0E0
E0E0
E0E0
F0F0
ENDCHAR
STARTCHAR  01CE
ENCODING  462
SWIDTH  1000 0
DWIDTH  2 0
BBX  2 13 0 0
BITMAP
1010
A0A0
E0F0
E0F0
E0E0
E0E0
E0E0
E0E0
E0E0
E0E0
E0E0
E0E0
F0F0
ENDCHAR
STARTCHAR  0401
ENCODING  1025
SWIDTH  1000 0
DWIDTH  2 0
BBX  2 14 0 0
BITMAP
E0E0
F0F0
E0E0
F0E0
E080
E0E0
E0E0
E0E0
E0E0
E0E0
E0E0
E0E0
E0E0
F0F0
ENDCHAR
STARTCHAR  0410
ENCODING  1040
SWIDTH  1000 0
DWIDTH  2 0
BBX  2 13 0 0
BITMAP
F0F0
E0E0
F0F0
E0E0
E0E0
E0E0
E0E0
E0E0
E0E0
E0E0
E0E0
E0E0
E0E0
ENDCHAR
STARTCHAR  0411
ENCODING  1041
SWIDTH  1000 0
DWIDTH  2 0
BBX  2 13 0 0
BITMAP
F0E0
E000
F0F0
E0E0
E0E0
E0E0
E0E0
E0E0
E0E0
E0E0
E0E0
E0E0
F0F0
ENDCHAR
STARTCHAR  0412
ENCODING  1042
SWIDTH  1000 0
DWIDTH  2 0
BBX  2 13 0 0
BITMAP
F0F0
E0E0
F0F0
E0E0
E0E0
E0E0
E0E0
E0E0
E0E0
E0E0
E0E0
E0E0
F0F0
ENDCHAR
STARTCHAR  0413
ENCODING  1043
SWIDTH  1000 0
DWIDTH  2 0
BBX  2 13 0 0
BITMAP
F080
E000
E000
E000
E000
E000
E000
E000
E000
E000
E000
E000
E000
ENDCHAR
STARTCHAR  0414
ENCODING  1044
SWIDTH  1000 0
DWIDTH  4 0
BBX  4 14 0 -1
BITMAP
00F0F000
00E0E000
00E0E000
00E0E000
00E0E000
00E0E000
00E0E000
00E0E000
00E0E000
00E0E000
00E0E000
00E0E000
60FFFF60
00E0E000
ENDCHAR
STARTCHAR  0415
ENCODING  1045
SWIDTH  1000 0
DWIDTH  2 0
BBX  2 13 0 0
BITMAP
F0F0
E060
F0E0
E080
E0E0
E0E0
E0E0
E0E0
E0E0
E0E0
E0E0
E0E0
F0F0
ENDCHAR
STARTCHAR  0416
ENCODING  1046
SWIDTH  1000 0
DWIDTH  3 0
BBX  3 13 0 0
BITMAP
E0E0E0
E0E0E0
F0FFF0
E0E0E0
E0E0E0
E0E0E0
E0E0E0
E0E0E0
E0E0E0
E0E0E0
E0E0E0
E0E0E0
E0E0E0
ENDCHAR
STARTCHAR  0417
ENCODING  1047
SWIDTH  1000 0
DWIDTH  2 0
BBX  2 13 0 0
BITMAP
E0F0
00E0
E0F0
80E0
E0E0
E0E0
E0E0
E0E0
E0E0
E0E0
E0E0
E0E0
F0F0
ENDCHAR
STARTCHAR  0418
ENCODING  1048
SWIDTH  1000 0
DWIDTH  2 0
BBX  2 13 0 0
BITMAP
E0E0
E0E0
E0F0
F0F0
E0E0
E0E0
E0E0
E0E0
E0E0
E0E0
E0E0
E0E0
E0E0
ENDCHAR
STARTCHAR  0419
ENCODING  1049
SWIDTH  1000 0
DWIDTH  2 0
BBX  2 15 0 0
BITMAP
1010
A0A0
E0E0
E0E0
E0F0
F0F0
E0E0
E0E0
E0E0
E0E0
E0E0
E0E0
E0E0
E0E0
E0E0
ENDCHAR
STARTCHAR  041A
ENCODING  1050
SWIDTH  1000 0
DWIDTH  2 0
BBX  2 13 0 0
BITMAP
E0E0
E0E0
F0E0
F0E0
E0E0
E0E0
E0E0
E0E0
E0E0
E0E0
E0E0
E0E0
E0E0
ENDCHAR
STARTCHAR  041B
ENCODING  1051
SWIDTH  1000 0
DWIDTH  3 0
BBX  3 13 0 0
BITMAP
00F0F0
00E0E0
00E0E0
00E0E0
00E0E0
00E0E0
00E0E0
00E0E0
00E0E0
00E0E0
00E0E0
00E0E0
60F0E0
ENDCHAR
STARTCHAR  041C
ENCODING  1052
SWIDTH  1000 0
DWIDTH  3 0
BBX  3 13 0 0
BITMAP
F0FFF0
E0E0E0
E0E0E0
E0E0E0
E0E0E0
E0E0E0
E0E0E0
E0E0E0
E0E0E0
E0E0E0
E0E0E0
E0E0E0
E0E0E0
ENDCHAR
STARTCHAR  041D
ENCODING  1053
SWIDTH  1000 0
DWIDTH  2 0
BBX  2 13 0 0
BITMAP
E0E0
E0E0
F0F0
E0E0
E0E0
E0E0
E0E0
E0E0
E0E0
E0E0
E0E0
E0E0
E0E0
ENDCHAR
STARTCHAR  041E
ENCODING  1054
SWIDTH  1000 0
DWIDTH  2 0
BBX  2 13 0 0
BITMAP
F0F0
E0E0
E0E0
E0E0
E0E0
E0E0
E0E0
E0E0
E0E0
E0E0
E0E0
E0E0
F0F0
ENDCHAR
STARTCHAR  041F
ENCODING  1055
SWIDTH  1000 0
DWIDTH  2 0
BBX  2 13 0 0
BITMAP
F0F0
E0E0
E0E0
E0E0
E0E0
E0E0
E0E0
E0E0
E0E0
E0E0
E0E0
E0E0
E0E0
ENDCHAR
STARTCHAR  0420
ENCODING  1056
SWIDTH  1000 0
DWIDTH  2 0
BBX  2 13 0 0
BITMAP
F0F0
E0E0
E0E0
E0E0
E0E0
E0E0
E0E0
E0E0
E0E0
E0E0
E0E0
F0E0
E000
ENDCHAR
STARTCHAR  0421
ENCODING  1057
SWIDTH  1000 0
DWIDTH  2 0
BBX  2 13 0 0
BITMAP
F0F0
E0C0
E0A0
E0E0
E0E0
E0E0
E0E0
E0E0
E0E0
E0E0
E0E0
E0E0
F0F0
ENDCHAR
STARTCHAR  0422
ENCODING  1058
SWIDTH  1000 0
DWIDTH  2 0
BBX  2 13 0 0
BITMAP
E000
E000
F0E0
E080
E0E0
E0E0
E0E0
E0E0
E0E0
E0E0
E0E0
E0E0
F0F0
ENDCHAR
STARTCHAR  0423
ENCODING  1059
SWIDTH  1000 0
DWIDTH  2 0
BBX  2 13 0 0
BITMAP
E0E0
E0E0
E0F0
80E0
E0E0
E0E0
E0E0
E0E0
E0E0
E0E0
E0E0
E0E0
F0F0
ENDCHAR
STARTCHAR  0424
ENCODING  1060
SWIDTH  1000 0
DWIDTH  3 0
BBX  3 13 0 0
BITMAP
00E000
00E000
F0FFF0
E0E0E0
E0E0E0
E0E0E0
E0E0E0
E0E0E0
E0E0E0
E0E0E0
E0FFE0
00E000
00E000
ENDCHAR
STARTCHAR  0425
ENCODING  1061
SWIDTH  1000 0
DWIDTH  2 0
BBX  2 13 0 0
BITMAP
E0E0
E0E0
E0E0
F0F0
E0E0
E0E0
E0E0
E0E0
E0E0
E0E0
E0E0
E0E0
E0E0
ENDCHAR
STARTCHAR  0426
ENCODING  1062
SWIDTH  1000 0
DWIDTH  3 0
BBX  3 14 0 -1
BITMAP
E0E000
E0E000
E0E000
E0E000
E0E000
E0E000
E0E000
E0E000
E0E000
E0E000
E0E000
E0E000
F0FF80
008080
ENDCHAR
STARTCHAR  0427
ENCODING  1063
SWIDTH  1000 0
DWIDTH  2 0
BBX  2 13 0 0
BITMAP
E0E0
E0E0
E0E0
E0E0
E0E0
E0E0
E0E0
E0E0
E0E0
E0E0
E0E0
E0F0
00E0
ENDCHAR
STARTCHAR  0428
ENCODING  1064
SWIDTH  1000 0
DWIDTH  3 0
BBX  3 13 0 0
BITMAP
E0E0E0
E0E0E0
E0E0E0
E0E0E0
E0E0E0
E0E0E0
E0E0E0
E0E0E0
E0E0E0
E0E0E0
E0E0E0
E0E0E0
F0FFF0
ENDCHAR
STARTCHAR  0429
ENCODING  1065
SWIDTH  1000 0
DWIDTH  5 0
BBX  5 14 0 -1
BITMAP
E0E000E000
E0E000E000
E0E000E000
E0E000E000
E0E000E000
E0E000E000
E0E000E000
E0E000E000
E0E000E000
E0E000E000
E0E000E000
E0E000E000
F0FFF0FF10
0000008010
ENDCHAR
STARTCHAR  042A
ENCODING  1066
SWIDTH  1000 0
DWIDTH  3 0
BBX  3 13 0 0
BITMAP
60F000
00E000
00F0F0
00E0E0
00E0E0
00E0E0
00E0E0
00E0E0
00E0E0
00E0E0
00E0E0
00E0E0
00F0F0
ENDCHAR
STARTCHAR  042B
ENCODING  1067
SWIDTH  1000 0
DWIDTH  3 0
BBX  3 13 0 0
BITMAP
E000E0
E000E0
F0F0E0
E0E0E0
E0E0E0
E0E0E0
E0E0E0
E0E0E0
E0E0E0
E0E0E0
E0E0E0
E0E0E0
F0F0E0
ENDCHAR
STARTCHAR  042C
ENCODING  1068
SWIDTH  1000 0
DWIDTH  2 0
BBX  2 13 0 0
BITMAP
E000
E000
F0F0
E0E0
E0E0
E0E0
E0E0
E0E0
E0E0
E0E0
E0E0
E0E0
F0F0
ENDCHAR
STARTCHAR  042D
ENCODING  1069
SWIDTH  1000 0
DWIDTH  2 0
BBX  2 13 0 0
BITMAP
F0F0
60E0
E0F0
80E0
E0E0
E0E0
E0E0
E0E0
E0E0
E0E0
E0E0
E0E0
F0F0
ENDCHAR
STARTCHAR  042E
ENCODING  1070
SWIDTH  1000 0
DWIDTH  3 0
BBX  3 13 0 0
BITMAP
E0F0F0
E0E0E0
F0F0E0
E0E0E0
E0E0E0
E0E0E0
E0E0E0
E0E0E0
E0E0E0
E0E0E0
E0E0E0
E0E0E0
E0F0F0
ENDCHAR
STARTCHAR  042F
ENCODING  1071
SWIDTH  1000 0
DWIDTH  2 0
BBX  2 13 0 0
BITMAP
F0F0
E0E0
E0F0
E0F0
E0E0
E0E0
E0E0
E0E0
E0E0
E0E0
E0E0
E0E0
E0E0
ENDCHAR
STARTCHAR  0430
ENCODING  1072
SWIDTH  1000 0
DWIDTH  2 0
BBX  2 11 0 0
BITMAP
E0F0
E0F0
E0E0
E0E0
E0E0
E0E0
E0E0
E0E0
E0E0
E0E0
F0F0
ENDCHAR
STARTCHAR  0431
ENCODING  1073
SWIDTH  1000 0
DWIDTH  2 0
BBX  2 12 0 0
BITMAP
E0E0
F0F0
E0E0
E0E0
E0E0
E0E0
E0E0
E0E0
E0E0
E0E0
E0E0
F0F0
ENDCHAR
STARTCHAR  0432
ENCODING  1074
SWIDTH  1000 0
DWIDTH  2 0
BBX  2 11 0 0
BITMAP
F0F0
E0E0
F0F0
E0E0
E0E0
E0E0
E0E0
E0E0
E0E0
E0E0
F0F0
ENDCHAR
STARTCHAR  0433
ENCODING  1075
SWIDTH  1000 0
DWIDTH  2 0
BBX  2 11 0 0
BITMAP
F080
E000
E000
E000
E000
E000
E000
E000
E000
E000
E000
ENDCHAR
STARTCHAR  0434
ENCODING  1076
SWIDTH  1000 0
DWIDTH  4 0
BBX  4 12 0 -1
BITMAP
00F0F000
00E0E000
00E0E000
00E0E000
00E0E000
00E0E000
00E0E000
00E0E000
00E0E000
00E0E000
60FFFF60
00E0E000
ENDCHAR
STARTCHAR  0435
ENCODING  1077
SWIDTH  1000 0
DWIDTH  2 0
BBX  2 11 0 0
BITMAP
F0F0
E0E0
F0E0
E080
E0E0
E0E0
E0E0
E0E0
E0E0
E0E0
F0F0
ENDCHAR
STARTCHAR  0436
ENCODING  1078
SWIDTH  1000 0
DWIDTH  3 0
BBX  3 11 0 0
BITMAP
E0E0E0
E0E0E0
F0FFF0
E0E0E0
E0E0E0
E0E0E0
E0E0E0
E0E0E0
E0E0E0
E0E0E0
E0E0E0
ENDCHAR
STARTCHAR  0437
ENCODING  1079
SWIDTH  1000 0
DWIDTH  2 0
BBX  2 11 0 0
BITMAP
E0F0
00E0
E0F0
80E0
E0E0
E0E0
E0E0
E0E0
E0E0
E0E0
F0F0
ENDCHAR
STARTCHAR  0438
ENCODING  1080
SWIDTH  1000 0
DWIDTH  2 0
BBX  2 11 0 0
BITMAP
E0E0
E0E0
E0F0
F0F0
E0E0
E0E0
E0E0
E0E0
E0E0
E0E0
E0E0
ENDCHAR
STARTCHAR  0439
ENCODING  1081
SWIDTH  1000 0
DWIDTH  2 0
BBX  2 13 0 0
BITMAP
1010
A0A0
E0E0
E0E0
E0F0
F0F0
E0E0
E0E0
E0E0
E0E0
E0E0
E0E0
E0E0
ENDCHAR
STARTCHAR  043A
ENCODING  1082
SWIDTH  1000 0
DWIDTH  2 0
BBX  2 11 0 0
BITMAP
E0E0
E0E0
F0E0
F0E0
E0E0
E0E0
E0E0
E0E0
E0E0
E0E0
E0E0
ENDCHAR
STARTCHAR  043B
ENCODING  1083
SWIDTH  1000 0
DWIDTH  3 0
BBX  3 11 0 0
BITMAP
00F0F0
00E0E0
00E0E0
00E0E0
00E0E0
00E0E0
00E0E0
00E0E0
00E0E0
00E0E0
60F0E0
ENDCHAR
STARTCHAR  043C
ENCODING  1084
SWIDTH  1000 0
DWIDTH  3 0
BBX  3 11 0 0
BITMAP
F0FFF0
E0E0E0
E0E0E0
E0E0E0
E0E0E0
E0E0E0
E0E0E0
E0E0E0
E0E0E0
E0E0E0
E0E0E0
ENDCHAR
STARTCHAR  043D
ENCODING  1085
SWIDTH  1000 0
DWIDTH  2 0
BBX  2 11 0 0
BITMAP
E0E0
E0E0
F0F0
E0E0
E0E0
E0E0
E0E0
E0E0
E0E0
E0E0
E0E0
ENDCHAR
STARTCHAR  043E
ENCODING  1086
SWIDTH  1000 0
DWIDTH  2 0
BBX  2 11 0 0
BITMAP
F0F0
E0E0
E0E0
E0E0
E0E0
E0E0
E0E0
E0E0
E0E0
E0E0
F0F0
ENDCHAR
STARTCHAR  043F
ENCODING  1087
SWIDTH  1000 0
DWIDTH  2 0
BBX  2 11 0 0
BITMAP
F0F0
E0E0
E0E0
E0E0
E0E0
E0E0
E0E0
E0E0
E0E0
E0E0
E0E0
ENDCHAR
STARTCHAR  0440
ENCODING  1088
SWIDTH  1000 0
DWIDTH  2 0
BBX  2 11 0 0
BITMAP
F0F0
E0E0
E0E0
E0E0
E0E0
E0E0
E0E0
E0E0
E0E0
F0E0
E000
ENDCHAR
STARTCHAR  0441
ENCODING  1089
SWIDTH  1000 0
DWIDTH  2 0
BBX  2 11 0 0
BITMAP
F0F0
E0E0
E0A0
E0C0
E0E0
E0E0
E0E0
E0E0
E0E0
E0E0
F0F0
ENDCHAR
STARTCHAR  0442
ENCODING  1090
SWIDTH  1000 0
DWIDTH  2 0
BBX  2 11 0 0
BITMAP
E000
E000
F0E0
E080
E0E0
E0E0
E0E0
E0E0
E0E0
E0E0
F0F0
ENDCHAR
STARTCHAR  0443
ENCODING  1091
SWIDTH  1000 0
DWIDTH  2 0
BBX  2 11 0 0
BITMAP
E0E0
E0E0
E0F0
80E0
E0E0
E0E0
E0E0
E0E0
E0E0
E0E0
F0F0
ENDCHAR
STARTCHAR  0444
ENCODING  1092
SWIDTH  1000 0
DWIDTH  3 0
BBX  3 11 0 0
BITMAP
00E000
00E000
E0FFE0
E0E0E0
E0E0E0
E0E0E0
E0E0E0
E0E0E0
E0FFE0
00E000
00E000
ENDCHAR
STARTCHAR  0445
ENCODING  1093
SWIDTH  1000 0
DWIDTH  2 0
BBX  2 11 0 0
BITMAP
E0E0
E0E0
E0E0
F0F0
E0E0
E0E0
E0E0
E0E0
E0E0
E0E0
E0E0
ENDCHAR
STARTCHAR  0446
ENCODING  1094
SWIDTH  1000 0
DWIDTH  3 0
BBX  3 12 0 -1
BITMAP
E0E000
E0E000
E0E000
E0E000
E0E000
E0E000
E0E000
E0E000
E0E000
E0E000
F0FF80
008080
ENDCHAR
STARTCHAR  0447
ENCODING  1095
SWIDTH  1000 0
DWIDTH  2 0
BBX  2 11 0 0
BITMAP
E0E0
E0E0
E0E0
E0E0
E0E0
E0E0
E0E0
E0E0
E0E0
E0F0
00E0
ENDCHAR
STARTCHAR  0448
ENCODING  1096
SWIDTH  1000 0
DWIDTH  3 0
BBX  3 11 0 0
BITMAP
E0E0E0
E0E0E0
E0E0E0
E0E0E0
E0E0E0
E0E0E0
E0E0E0
E0E0E0
E0E0E0
E0E0E0
F0FFF0
ENDCHAR
STARTCHAR  0449
ENCODING  1097
SWIDTH  1000 0
DWIDTH  5 0
BBX  5 12 0 -1
BITMAP
E0E000E000
E0E000E000
E0E000E000
E0E000E000
E0E000E000
E0E000E000
E0E000E000
E0E000E000
E0E000E000
E0E000E000
F0FFF0FF10
0000008010
ENDCHAR
STARTCHAR  044A
ENCODING  1098
SWIDTH  1000 0
DWIDTH  3 0
BBX  3 11 0 0
BITMAP
60F000
00F0E0
00E0E0
00E0E0
00E0E0
00E0E0
00E0E0
00E0E0
00E0E0
00E0E0
00F0F0
ENDCHAR
STARTCHAR  044B
ENCODING  1099
SWIDTH  1000 0
DWIDTH  3 0
BBX  3 11 0 0
BITMAP
E000E0
F0E0E0
E0E0E0
E0E0E0
E0E0E0
E0E0E0
E0E0E0
E0E0E0
E0E0E0
E0E0E0
F0F0E0
ENDCHAR
STARTCHAR  044C
ENCODING  1100
SWIDTH  1000 0
DWIDTH  2 0
BBX  2 11 0 0
BITMAP
E000
F0E0
E0E0
E0E0
E0E0
E0E0
E0E0
E0E0
E0E0
E0E0
F0F0
ENDCHAR
STARTCHAR  044D
ENCODING  1101
SWIDTH  1000 0
DWIDTH  2 0
BBX  2 11 0 0
BITMAP
F0F0
60E0
E0F0
80E0
E0E0
E0E0
E0E0
E0E0
E0E0
E0E0
F0F0
ENDCHAR
STARTCHAR  044E
ENCODING  1102
SWIDTH  1000 0
DWIDTH  3 0
BBX  3 11 0 0
BITMAP
E0F0F0
E0E0E0
F0F0E0
E0E0E0
E0E0E0
E0E0E0
E0E0E0
E0E0E0
E0E0E0
E0E0E0
E0F0F0
ENDCHAR
STARTCHAR  044F
ENCODING  1103
SWIDTH  1000 0
DWIDTH  2 0
BBX  2 11 0 0
BITMAP
F0F0
E0E0
E0F0
E0F0
E0E0
E0E0
E0E0
E0E0
E0E0
E0E0
E0E0
ENDCHAR
STARTCHAR  0451
ENCODING  1105
SWIDTH  1000 0
DWIDTH  2 0
BBX  2 12 0 0
BITMAP
E0E0
F0F0
E0E0
F0E0
E080
E0E0
E0E0
E0E0
E0E0
E0E0
E0E0
F0F0
ENDCHAR
STARTCHAR  2018
ENCODING  8216
SWIDTH  1000 0
DWIDTH  1 0
BBX  1 3 0 10
BITMAP
C0
E0
C0
ENDCHAR
STARTCHAR  2019
ENCODING  8217
SWIDTH  1000 0
DWIDTH  1 0
BBX  1 3 0 10
BITMAP
E0
E0
80
ENDCHAR
STARTCHAR  201C
ENCODING  8220
SWIDTH  1000 0
DWIDTH  2 0
BBX  2 3 0 10
BITMAP
C0C0
E0E0
C0C0
ENDCHAR
STARTCHAR  201D
ENCODING  8221
SWIDTH  1000 0
DWIDTH  2 0
BBX  2 3 0 10
BITMAP
E0E0
E0E0
8080
ENDCHAR
ENDFONT
